<svg width="30" height="30" viewBox="0 0 30 30" fill="none" xmlns="http://www.w3.org/2000/svg">
<g clip-path="url(#clip0_4_95)">
<path d="M19.5 15C19.5 16.1935 19.0259 17.338 18.182 18.182C17.3381 19.0259 16.1935 19.5 15 19.5C13.8065 19.5 12.6619 19.0259 11.818 18.182C10.9741 17.338 10.5 16.1935 10.5 15C10.5 14.7435 10.527 14.493 10.5735 14.25H9.00001V20.2455C9.00001 20.6625 9.33751 21 9.75451 21H20.247C20.4469 20.9996 20.6384 20.9199 20.7795 20.7785C20.9207 20.637 21 20.4453 21 20.2455V14.25H19.4265C19.473 14.493 19.5 14.7435 19.5 15ZM15 18C15.3941 17.9999 15.7843 17.9222 16.1483 17.7713C16.5123 17.6204 16.8431 17.3993 17.1216 17.1205C17.4002 16.8418 17.6212 16.511 17.7719 16.1469C17.9226 15.7828 18.0001 15.3925 18 14.9985C17.9999 14.6044 17.9222 14.2142 17.7713 13.8502C17.6204 13.4862 17.3993 13.1554 17.1206 12.8768C16.8419 12.5983 16.511 12.3773 16.1469 12.2266C15.7828 12.0759 15.3926 11.9984 14.9985 11.9985C14.2027 11.9987 13.4395 12.315 12.8769 12.8779C12.3143 13.4408 11.9983 14.2041 11.9985 15C11.9987 15.7958 12.315 16.559 12.8779 17.1216C13.4408 17.6842 14.2042 18.0002 15 18ZM18.6 11.85H20.3985C20.518 11.85 20.6326 11.8026 20.7172 11.7183C20.8019 11.6339 20.8496 11.5195 20.85 11.4V9.60148C20.85 9.48173 20.8024 9.36689 20.7178 9.28222C20.6331 9.19755 20.5183 9.14998 20.3985 9.14998H18.6C18.4803 9.14998 18.3654 9.19755 18.2807 9.28222C18.1961 9.36689 18.1485 9.48173 18.1485 9.60148V11.4C18.15 11.6475 18.3525 11.85 18.6 11.85ZM15 0.599976C11.1809 0.599976 7.51819 2.11711 4.81767 4.81764C2.11714 7.51816 0.600006 11.1809 0.600006 15C0.600006 18.8191 2.11714 22.4818 4.81767 25.1823C7.51819 27.8828 11.1809 29.4 15 29.4C16.891 29.4 18.7636 29.0275 20.5106 28.3038C22.2577 27.5802 23.8452 26.5195 25.1823 25.1823C26.5195 23.8452 27.5802 22.2577 28.3039 20.5106C29.0275 18.7635 29.4 16.891 29.4 15C29.4 13.1089 29.0275 11.2364 28.3039 9.48934C27.5802 7.74225 26.5195 6.1548 25.1823 4.81764C23.8452 3.48047 22.2577 2.41978 20.5106 1.69611C18.7636 0.972443 16.891 0.599976 15 0.599976ZM22.5 20.8335C22.5 21.75 21.75 22.5 20.8335 22.5H9.16651C8.25001 22.5 7.50001 21.75 7.50001 20.8335V9.16648C7.50001 8.24998 8.25001 7.49998 9.16651 7.49998H20.8335C21.75 7.49998 22.5 8.24998 22.5 9.16648V20.8335Z" fill="#EEEEEE"/>
</g>
<defs>
<clipPath id="clip0_4_95">
<rect width="30" height="30" fill="white"/>
</clipPath>
</defs>
</svg>
