<svg width="31" height="31" viewBox="0 0 31 31" fill="none" xmlns="http://www.w3.org/2000/svg">
<path d="M28.5347 13.9679C28.5218 13.8273 28.4567 13.6966 28.3522 13.6016C28.2476 13.5067 28.1113 13.4545 27.9701 13.4552H16.1288C15.3485 10.4648 12.6326 8.24899 9.40097 8.24899C5.56247 8.24899 2.44037 11.3711 2.44037 15.2096C2.44037 19.049 5.56247 22.1702 9.40097 22.1702C12.8345 22.1702 15.6869 19.6706 16.253 16.3976H18.89V20.1527H18.8942C18.9044 20.2958 18.9684 20.4298 19.0734 20.5276C19.1784 20.6254 19.3165 20.6799 19.46 20.6801C19.4678 20.6801 19.4747 20.6783 19.4825 20.678V20.6813H21.3125V20.6804C21.456 20.6804 21.5942 20.6259 21.6992 20.5281C21.8042 20.4302 21.8682 20.2962 21.8783 20.153H21.8831V16.3979H23.3768V22.2038H23.3813C23.3917 22.347 23.4558 22.4809 23.5608 22.5788C23.6658 22.6767 23.8038 22.7313 23.9474 22.7318L23.9537 22.7312H25.7873L25.7936 22.7318C25.9371 22.7313 26.0751 22.6766 26.1801 22.5787C26.285 22.4808 26.3492 22.3469 26.3597 22.2038H26.3642V16.3976H27.9707V16.397C28.1218 16.3968 28.2667 16.3366 28.3736 16.2297C28.4804 16.1228 28.5405 15.9778 28.5407 15.8267H28.5404V13.9676H28.5347V13.9679ZM9.40097 19.25C7.19957 19.25 5.40857 17.4578 5.40857 15.2567C5.40857 13.0553 7.19957 11.2634 9.40097 11.2634C11.6021 11.2634 13.3922 13.0553 13.3922 15.2567C13.3925 17.4581 11.6021 19.25 9.40097 19.25Z" fill="#C4C4C4"/>
</svg>
