<svg width="30" height="30" viewBox="0 0 30 30" fill="none" xmlns="http://www.w3.org/2000/svg">
<path d="M25.2 8.55C21.6 3 14.25 1.35 8.55 4.8C3 8.25 1.2 15.75 4.8 21.3L5.1 21.75L3.9 26.25L8.4 25.05L8.85 25.35C10.8 26.4 12.9 27 15 27C17.25 27 19.5 26.4 21.45 25.2C27 21.6 28.65 14.25 25.2 8.55ZM22.05 20.1C21.45 21 20.7 21.6 19.65 21.75C19.05 21.75 18.3 22.05 15.3 20.85C12.75 19.65 10.65 17.7 9.15 15.45C8.25 14.4 7.8 13.05 7.65 11.7C7.65 10.5 8.1 9.45 8.85 8.7C9.15 8.4 9.45 8.25 9.75 8.25H10.5C10.8 8.25 11.1 8.25 11.25 8.85C11.55 9.6 12.3 11.4 12.3 11.55C12.45 11.7 12.45 12 12.3 12.15C12.45 12.45 12.3 12.75 12.15 12.9C12 13.05 11.85 13.35 11.7 13.5C11.4 13.65 11.25 13.95 11.4 14.25C12 15.15 12.75 16.05 13.5 16.8C14.4 17.55 15.3 18.15 16.35 18.6C16.65 18.75 16.95 18.75 17.1 18.45C17.25 18.15 18 17.4 18.3 17.1C18.6 16.8 18.75 16.8 19.05 16.95L21.45 18.15C21.75 18.3 22.05 18.45 22.2 18.6C22.35 19.05 22.35 19.65 22.05 20.1Z" fill="#B5B5B5"/>
</svg>
