<svg width="41" height="38" viewBox="0 0 41 38" fill="none" xmlns="http://www.w3.org/2000/svg">
<path d="M17.5057 17.5C18.6664 17.4999 19.8156 17.7307 20.8862 18.179C21.9569 18.6273 22.9276 19.2841 23.742 20.1112C24.5563 20.9384 25.1979 21.9193 25.6295 22.9968C26.0611 24.0743 26.2739 25.2269 26.2557 26.3875C26.2527 26.5797 26.2941 26.7699 26.3767 26.9434C26.4592 27.117 26.5807 27.2692 26.7316 27.3882C26.8825 27.5072 27.0588 27.5897 27.2468 27.6295C27.4348 27.6693 27.6295 27.6652 27.8157 27.6175C28.37 27.4755 28.9494 27.462 29.5098 27.5779C30.0702 27.6939 30.5966 27.9364 31.049 28.2868C31.5014 28.6372 31.8678 29.0863 32.1203 29.5998C32.3727 30.1133 32.5045 30.6778 32.5057 31.25C32.5057 32.2446 32.1106 33.1984 31.4073 33.9016C30.7041 34.6049 29.7502 35 28.7557 35H7.50567C6.84093 34.9962 6.1836 34.86 5.57215 34.5991C4.9607 34.3383 4.40739 33.9582 3.9446 33.481C3.48181 33.0038 3.11882 32.4391 2.87686 31.8199C2.63491 31.2008 2.51885 30.5396 2.53547 29.8751C2.55209 29.2105 2.70106 28.5559 2.97367 27.9497C3.24628 27.3434 3.63704 26.7975 4.12311 26.3441C4.60919 25.8906 5.1808 25.5386 5.80453 25.3087C6.42826 25.0787 7.09157 24.9755 7.75567 25.005C8.04373 25.0198 8.32805 24.9346 8.56042 24.7637C8.7928 24.5928 8.95894 24.3469 9.03067 24.0675C9.51559 22.1883 10.6112 20.5235 12.1452 19.3347C13.6793 18.1459 15.5649 17.5005 17.5057 17.5ZM28.6882 25C28.4069 22.4653 27.2728 20.1015 25.4718 18.2959C23.6708 16.4904 21.3098 15.3503 18.7759 15.0626C16.242 14.7749 13.6855 15.3567 11.5256 16.7126C9.36564 18.0684 7.73049 20.1179 6.88817 22.525C4.95802 22.683 3.1638 23.5814 1.88108 25.0323C0.59836 26.4832 -0.0734146 28.374 0.0063742 30.309C0.086163 32.244 0.91133 34.0731 2.30915 35.4134C3.70696 36.7538 5.56907 37.5015 7.50567 37.5H28.7557C30.4133 37.5 32.003 36.8415 33.1751 35.6694C34.3472 34.4973 35.0057 32.9076 35.0057 31.25C35.0057 29.5924 34.3472 28.0027 33.1751 26.8306C32.003 25.6585 30.4133 25 28.7557 25H28.6882Z" fill="#393E46"/>
<path d="M26.2556 1.25C26.2556 0.918479 26.1239 0.600537 25.8895 0.366116C25.6551 0.131696 25.3372 0 25.0056 0C24.6741 0 24.3562 0.131696 24.1217 0.366116C23.8873 0.600537 23.7556 0.918479 23.7556 1.25V3.75C23.7556 4.08152 23.8873 4.39946 24.1217 4.63388C24.3562 4.8683 24.6741 5 25.0056 5C25.3372 5 25.6551 4.8683 25.8895 4.63388C26.1239 4.39946 26.2556 4.08152 26.2556 3.75V1.25ZM35.6131 6.16C35.7325 6.04469 35.8277 5.90676 35.8933 5.75426C35.9588 5.60175 35.9933 5.43773 35.9947 5.27175C35.9961 5.10578 35.9645 4.94118 35.9017 4.78756C35.8388 4.63394 35.746 4.49437 35.6286 4.37701C35.5113 4.25964 35.3717 4.16682 35.2181 4.10397C35.0645 4.04112 34.8999 4.00949 34.7339 4.01094C34.5679 4.01238 34.4039 4.04686 34.2514 4.11237C34.0989 4.17788 33.9609 4.27311 33.8456 4.3925L32.0756 6.16C31.8409 6.39472 31.7091 6.71306 31.7091 7.045C31.7091 7.37694 31.8409 7.69528 32.0756 7.93C32.3103 8.16472 32.6287 8.29658 32.9606 8.29658C33.2926 8.29658 33.6109 8.16472 33.8456 7.93L35.6131 6.16ZM16.1656 4.3925C15.9299 4.1648 15.6141 4.03881 15.2864 4.04166C14.9586 4.04451 14.6451 4.17597 14.4134 4.40773C14.1816 4.63949 14.0501 4.953 14.0473 5.28075C14.0444 5.60849 14.1704 5.92425 14.3981 6.16L16.1656 7.93C16.2819 8.04622 16.4198 8.13841 16.5717 8.20131C16.7235 8.26421 16.8863 8.29658 17.0506 8.29658C17.215 8.29658 17.3777 8.26421 17.5296 8.20131C17.6814 8.13841 17.8194 8.04622 17.9356 7.93C18.0519 7.81378 18.144 7.67581 18.2069 7.52396C18.2698 7.37211 18.3022 7.20936 18.3022 7.045C18.3022 6.88064 18.2698 6.71789 18.2069 6.56604C18.144 6.41419 18.0519 6.27622 17.9356 6.16L16.1656 4.3925ZM20.5006 12.8275C20.8113 12.1836 21.2565 11.6138 21.8062 11.1566C22.3558 10.6994 22.9971 10.3653 23.6868 10.177C24.3765 9.98873 25.0986 9.95052 25.8043 10.065C26.51 10.1795 27.183 10.444 27.7778 10.8406C28.3727 11.2373 28.8755 11.7569 29.2524 12.3644C29.6294 12.9719 29.8716 13.6532 29.9629 14.3623C30.0541 15.0714 29.9922 15.7919 29.7814 16.475C29.5705 17.1582 29.2156 17.7882 28.7406 18.3225C29.2381 19.025 29.6706 19.7775 30.0306 20.5675C30.8779 19.802 31.5391 18.8532 31.964 17.7933C32.3889 16.7335 32.5662 15.5906 32.4823 14.4518C32.3985 13.3131 32.0557 12.2085 31.4802 11.2223C30.9047 10.2361 30.1115 9.39435 29.1613 8.7612C28.2111 8.12804 27.1289 7.72021 25.9971 7.5688C24.8653 7.41738 23.714 7.52638 22.6307 7.88749C21.5475 8.24859 20.561 8.85226 19.7465 9.65248C18.9319 10.4527 18.3109 11.4283 17.9306 12.505C18.8106 12.5325 19.6706 12.6425 20.5006 12.8275ZM31.7106 23.0125C33.2106 23.55 34.5231 24.4875 35.5156 25.6925C35.6517 25.5823 35.7632 25.4447 35.8427 25.2886C35.9222 25.1326 35.968 24.9616 35.9772 24.7867C35.9864 24.6118 35.9588 24.4369 35.896 24.2734C35.8333 24.1099 35.7369 23.9614 35.6131 23.8375L33.8456 22.07C33.6674 21.8907 33.4391 21.7697 33.1907 21.7229C32.9423 21.6761 32.6856 21.7056 32.4543 21.8077C32.2231 21.9098 32.0282 22.0796 31.8955 22.2947C31.7627 22.5098 31.6982 22.76 31.7106 23.0125ZM36.2556 13.75C35.9241 13.75 35.6062 13.8817 35.3717 14.1161C35.1373 14.3505 35.0056 14.6685 35.0056 15C35.0056 15.3315 35.1373 15.6495 35.3717 15.8839C35.6062 16.1183 35.9241 16.25 36.2556 16.25H38.7556C39.0872 16.25 39.4051 16.1183 39.6395 15.8839C39.8739 15.6495 40.0056 15.3315 40.0056 15C40.0056 14.6685 39.8739 14.3505 39.6395 14.1161C39.4051 13.8817 39.0872 13.75 38.7556 13.75H36.2556Z" fill="#393E46"/>
</svg>
