<svg width="31" height="31" viewBox="0 0 31 31" fill="none" xmlns="http://www.w3.org/2000/svg">
<path d="M28.5347 13.9678C28.5218 13.8272 28.4567 13.6965 28.3522 13.6016C28.2476 13.5066 28.1113 13.4544 27.9701 13.4551H16.1288C15.3485 10.4647 12.6326 8.2489 9.40097 8.2489C5.56247 8.2489 2.44037 11.371 2.44037 15.2095C2.44037 19.0489 5.56247 22.1701 9.40097 22.1701C12.8345 22.1701 15.6869 19.6705 16.253 16.3975H18.89V20.1526H18.8942C18.9044 20.2957 18.9684 20.4297 19.0734 20.5275C19.1784 20.6254 19.3165 20.6798 19.46 20.68C19.4678 20.68 19.4747 20.6782 19.4825 20.6779V20.6812H21.3125V20.6803C21.456 20.6803 21.5942 20.6258 21.6992 20.528C21.8042 20.4301 21.8682 20.2961 21.8783 20.1529H21.8831V16.3978H23.3768V22.2037H23.3813C23.3917 22.3469 23.4558 22.4808 23.5608 22.5787C23.6658 22.6766 23.8038 22.7312 23.9474 22.7317L23.9537 22.7311H25.7873L25.7936 22.7317C25.9371 22.7312 26.0751 22.6765 26.1801 22.5786C26.285 22.4807 26.3492 22.3468 26.3597 22.2037H26.3642V16.3975H27.9707V16.3969C28.1218 16.3967 28.2667 16.3365 28.3736 16.2296C28.4804 16.1227 28.5405 15.9778 28.5407 15.8266H28.5404V13.9675H28.5347V13.9678ZM9.40097 19.2499C7.19957 19.2499 5.40857 17.4577 5.40857 15.2566C5.40857 13.0552 7.19957 11.2633 9.40097 11.2633C11.6021 11.2633 13.3922 13.0552 13.3922 15.2566C13.3925 17.458 11.6021 19.2499 9.40097 19.2499Z" fill="white"/>
</svg>
