<svg width="30" height="30" viewBox="0 0 30 30" fill="none" xmlns="http://www.w3.org/2000/svg">
<path d="M25.2 8.55006C21.6 3.00006 14.25 1.35006 8.55 4.80006C3 8.25006 1.2 15.7501 4.8 21.3001L5.1 21.7501L3.9 26.2501L8.4 25.0501L8.85 25.3501C10.8 26.4001 12.9 27.0001 15 27.0001C17.25 27.0001 19.5 26.4001 21.45 25.2001C27 21.6001 28.65 14.2501 25.2 8.55006ZM22.05 20.1001C21.45 21.0001 20.7 21.6001 19.65 21.7501C19.05 21.7501 18.3 22.0501 15.3 20.8501C12.75 19.6501 10.65 17.7001 9.15 15.4501C8.25 14.4001 7.8 13.0501 7.65 11.7001C7.65 10.5001 8.1 9.45006 8.85 8.70006C9.15 8.40006 9.45 8.25006 9.75 8.25006H10.5C10.8 8.25006 11.1 8.25006 11.25 8.85006C11.55 9.60006 12.3 11.4001 12.3 11.5501C12.45 11.7001 12.45 12.0001 12.3 12.1501C12.45 12.4501 12.3 12.7501 12.15 12.9001C12 13.0501 11.85 13.3501 11.7 13.5001C11.4 13.6501 11.25 13.9501 11.4 14.2501C12 15.1501 12.75 16.0501 13.5 16.8001C14.4 17.5501 15.3 18.1501 16.35 18.6001C16.65 18.7501 16.95 18.7501 17.1 18.4501C17.25 18.1501 18 17.4001 18.3 17.1001C18.6 16.8001 18.75 16.8001 19.05 16.9501L21.45 18.1501C21.75 18.3001 22.05 18.4501 22.2 18.6001C22.35 19.0501 22.35 19.6501 22.05 20.1001Z" fill="#EEEEEE"/>
</svg>
