<svg width="40" height="41" viewBox="0 0 40 41" fill="none" xmlns="http://www.w3.org/2000/svg">
<path d="M15.0014 0.693367C15.2454 0.989925 15.3949 1.35286 15.4306 1.73527C15.4662 2.11768 15.3864 2.502 15.2014 2.83856C13.7559 5.49249 13.001 8.4673 13.0062 11.4893C13.0062 21.5427 21.2019 29.6835 31.3028 29.6835C32.6204 29.6835 33.9031 29.546 35.1357 29.2834C35.5135 29.2016 35.9071 29.2329 36.2673 29.3734C36.6274 29.5139 36.9382 29.7574 37.1609 30.0735C37.3958 30.4022 37.5157 30.7993 37.5016 31.203C37.4876 31.6068 37.3406 31.9947 37.0833 32.3062C35.1224 34.715 32.6486 36.6559 29.8423 37.9872C27.036 39.3185 23.968 40.0068 20.8619 40.0019C9.33584 40.0019 0 30.7161 0 19.275C0 10.6643 5.28548 3.2786 12.8112 0.148318C13.186 -0.0101164 13.6022 -0.0426344 13.9971 0.055649C14.3921 0.153932 14.7445 0.37771 15.0014 0.693367ZM12.1461 3.2761C9.25234 4.82831 6.83321 7.13555 5.14579 9.95261C3.45838 12.7697 2.56573 15.9913 2.56273 19.275C2.56273 29.326 10.761 37.4667 20.8619 37.4667C23.2807 37.4709 25.6764 36.9953 27.9101 36.0674C30.1439 35.1396 32.1715 33.7779 33.8756 32.0612C33.033 32.1662 32.1754 32.2187 31.3028 32.2187C19.7768 32.2187 10.4434 22.9329 10.4434 11.4918C10.4434 8.57408 11.0485 5.79633 12.1461 3.2761Z" fill="#EEEEEE"/>
<path d="M26.9875 7.86898C27.0233 7.76071 27.0924 7.66649 27.1849 7.5997C27.2773 7.53292 27.3885 7.49698 27.5025 7.49698C27.6166 7.49698 27.7277 7.53292 27.8202 7.5997C27.9127 7.66649 27.9817 7.76071 28.0176 7.86898L28.9852 10.7742C29.4177 12.0694 30.4328 13.0845 31.7279 13.517L34.6332 14.4846C34.7414 14.5204 34.8357 14.5895 34.9024 14.682C34.9692 14.7744 35.0052 14.8856 35.0052 14.9996C35.0052 15.1137 34.9692 15.2248 34.9024 15.3173C34.8357 15.4098 34.7414 15.4788 34.6332 15.5147L31.7279 16.4823C31.0892 16.6951 30.5088 17.0537 30.0327 17.5298C29.5566 18.0059 29.198 18.5863 28.9852 19.225L28.0176 22.1303C27.9817 22.2385 27.9127 22.3328 27.8202 22.3995C27.7277 22.4663 27.6166 22.5023 27.5025 22.5023C27.3885 22.5023 27.2773 22.4663 27.1849 22.3995C27.0924 22.3328 27.0233 22.2385 26.9875 22.1303L26.0199 19.225C25.8071 18.5863 25.4484 18.0059 24.9724 17.5298C24.4963 17.0537 23.9159 16.6951 23.2771 16.4823L20.3719 15.5147C20.2636 15.4788 20.1694 15.4098 20.1026 15.3173C20.0358 15.2248 19.9999 15.1137 19.9999 14.9996C19.9999 14.8856 20.0358 14.7744 20.1026 14.682C20.1694 14.5895 20.2636 14.5204 20.3719 14.4846L23.2771 13.517C23.9159 13.3042 24.4963 12.9455 24.9724 12.4695C25.4484 11.9934 25.8071 11.413 26.0199 10.7742L26.9875 7.86898ZM34.6607 0.245793C34.6853 0.174602 34.7316 0.112871 34.793 0.0691808C34.8544 0.0254911 34.9279 0.00201416 35.0032 0.00201416C35.0785 0.00201416 35.152 0.0254911 35.2134 0.0691808C35.2748 0.112871 35.321 0.174602 35.3457 0.245793L35.9908 2.18097C36.2783 3.04605 36.9559 3.72361 37.821 4.01113L39.7561 4.65619C39.8273 4.68087 39.8891 4.72712 39.9327 4.78851C39.9764 4.8499 39.9999 4.92337 39.9999 4.99872C39.9999 5.07407 39.9764 5.14754 39.9327 5.20893C39.8891 5.27032 39.8273 5.31657 39.7561 5.34125L37.821 5.98631C37.3946 6.12813 37.0073 6.36739 36.6896 6.68508C36.3719 7.00277 36.1326 7.39016 35.9908 7.81648L35.3457 9.75165C35.321 9.82284 35.2748 9.88457 35.2134 9.92826C35.152 9.97195 35.0785 9.99543 35.0032 9.99543C34.9279 9.99543 34.8544 9.97195 34.793 9.92826C34.7316 9.88457 34.6853 9.82284 34.6607 9.75165L34.0156 7.81648C33.8738 7.39016 33.6345 7.00277 33.3168 6.68508C32.9991 6.36739 32.6118 6.12813 32.1854 5.98631L30.2503 5.34125C30.1791 5.31657 30.1173 5.27032 30.0737 5.20893C30.03 5.14754 30.0065 5.07407 30.0065 4.99872C30.0065 4.92337 30.03 4.8499 30.0737 4.78851C30.1173 4.72712 30.1791 4.68087 30.2503 4.65619L32.1854 4.01113C33.0505 3.72361 33.7281 3.04605 34.0156 2.18097L34.6607 0.248293V0.245793Z" fill="#EEEEEE"/>
</svg>
